name Run_400 02_newCOP3_v24.mot
datacolumns 19
datarows 30
range 0.23000000 0.25900000
endheader
                time	   R_ground_force_vx	   R_ground_force_vy	   R_ground_force_vz	   R_ground_force_px	   R_ground_force_py	   R_ground_force_pz	   L_ground_force_vx	   L_ground_force_vy	   L_ground_force_vz	   L_ground_force_px	   L_ground_force_py	   L_ground_force_pz	   R_ground_torque_x	   R_ground_torque_y	   R_ground_torque_z	   L_ground_torque_x	   L_ground_torque_y	   L_ground_torque_z	
          0.23000000	        -91.73527500	       1194.66796900	         54.17583800	          1.10554200	          0.00000000	         -0.33205500	          0.00000000	          0.00000000	          0.00000000	          0.00000000	          0.00000000	          0.00000000	          0.00000000	        -12.31061600	          0.00000000	          0.00000000	          0.00000000	          0.00000000	
          0.23100000	       -103.04563900	       1203.75048800	         52.49960700	          1.10380800	          0.00000000	         -0.33205200	          0.00000000	          0.00000000	          0.00000000	          0.00000000	          0.00000000	          0.00000000	          0.00000000	        -11.37282800	          0.00000000	          0.00000000	          0.00000000	          0.00000000	
          0.23200000	       -114.48844100	       1213.30456500	         50.76559800	          1.10201100	          0.00000000	         -0.33205400	          0.00000000	          0.00000000	          0.00000000	          0.00000000	          0.00000000	          0.00000000	          0.00000000	        -10.44186600	          0.00000000	          0.00000000	          0.00000000	          0.00000000	
          0.23300000	       -125.91834300	       1223.34558100	         48.98378800	          1.10015400	          0.00000000	         -0.33206400	          0.00000000	          0.00000000	          0.00000000	          0.00000000	          0.00000000	          0.00000000	          0.00000000	         -9.51942600	          0.00000000	          0.00000000	          0.00000000	          0.00000000	
          0.23400000	       -137.19894400	       1233.89697300	         47.16418100	          1.09823500	          0.00000000	         -0.33208200	          0.00000000	          0.00000000	          0.00000000	          0.00000000	          0.00000000	          0.00000000	          0.00000000	         -8.60718700	          0.00000000	          0.00000000	          0.00000000	          0.00000000	
          0.23500000	       -148.20311000	       1244.98535200	         45.31696700	          1.09625100	          0.00000000	         -0.33211100	          0.00000000	          0.00000000	          0.00000000	          0.00000000	          0.00000000	          0.00000000	          0.00000000	         -7.70680300	          0.00000000	          0.00000000	          0.00000000	          0.00000000	
          0.23600000	       -158.81396500	       1256.63720700	         43.45258300	          1.09419900	          0.00000000	         -0.33215100	          0.00000000	          0.00000000	          0.00000000	          0.00000000	          0.00000000	          0.00000000	          0.00000000	         -6.81989500	          0.00000000	          0.00000000	          0.00000000	          0.00000000	
          0.23700000	       -168.92611700	       1268.87683100	         41.58175700	          1.09207500	          0.00000000	         -0.33220200	          0.00000000	          0.00000000	          0.00000000	          0.00000000	          0.00000000	          0.00000000	          0.00000000	         -5.94804700	          0.00000000	          0.00000000	          0.00000000	          0.00000000	
          0.23800000	       -178.44686900	       1281.72424300	         39.71550400	          1.08987700	          0.00000000	         -0.33226400	          0.00000000	          0.00000000	          0.00000000	          0.00000000	          0.00000000	          0.00000000	          0.00000000	         -5.09280000	          0.00000000	          0.00000000	          0.00000000	          0.00000000	
          0.23900000	       -187.29716500	       1295.19421400	         37.86509300	          1.08759900	          0.00000000	         -0.33233600	          0.00000000	          0.00000000	          0.00000000	          0.00000000	          0.00000000	          0.00000000	          0.00000000	         -4.25564600	          0.00000000	          0.00000000	          0.00000000	          0.00000000	
          0.24000000	       -195.41230800	       1309.29504400	         36.04196900	          1.08523900	          0.00000000	         -0.33241600	          0.00000000	          0.00000000	          0.00000000	          0.00000000	          0.00000000	          0.00000000	          0.00000000	         -3.43802000	          0.00000000	          0.00000000	          0.00000000	          0.00000000	
          0.24100000	       -202.74235500	       1324.02771000	         34.25765200	          1.08279600	          0.00000000	         -0.33250500	          0.00000000	          0.00000000	          0.00000000	          0.00000000	          0.00000000	          0.00000000	          0.00000000	         -2.64130000	          0.00000000	          0.00000000	          0.00000000	          0.00000000	
          0.24200000	       -209.25193800	       1339.38501000	         32.52362800	          1.08026800	          0.00000000	         -0.33259900	          0.00000000	          0.00000000	          0.00000000	          0.00000000	          0.00000000	          0.00000000	          0.00000000	         -1.86679500	          0.00000000	          0.00000000	          0.00000000	          0.00000000	
          0.24300000	       -214.91998300	       1355.35156300	         30.85121000	          1.07765400	          0.00000000	         -0.33269600	          0.00000000	          0.00000000	          0.00000000	          0.00000000	          0.00000000	          0.00000000	          0.00000000	         -1.11574600	          0.00000000	          0.00000000	          0.00000000	          0.00000000	
          0.24400000	       -219.73877000	       1371.90344200	         29.25138100	          1.07495700	          0.00000000	         -0.33279500	          0.00000000	          0.00000000	          0.00000000	          0.00000000	          0.00000000	          0.00000000	          0.00000000	         -0.38931900	          0.00000000	          0.00000000	          0.00000000	          0.00000000	
          0.24500000	       -223.71289100	       1389.00793500	         27.73463800	          1.07218000	          0.00000000	         -0.33289400	          0.00000000	          0.00000000	          0.00000000	          0.00000000	          0.00000000	          0.00000000	         -0.00000000	          0.31139900	         -0.00000000	          0.00000000	          0.00000000	          0.00000000	
          0.24600000	       -226.85791000	       1406.62439000	         26.31083700	          1.06932600	          0.00000000	         -0.33299000	          0.00000000	          0.00000000	          0.00000000	          0.00000000	          0.00000000	          0.00000000	         -0.00000000	          0.98540200	         -0.00000000	          0.00000000	          0.00000000	          0.00000000	
          0.24700000	       -229.19876100	       1424.70385700	         24.98902100	          1.06640200	          0.00000000	         -0.33308200	          0.00000000	          0.00000000	          0.00000000	          0.00000000	          0.00000000	          0.00000000	         -0.00000000	          1.63177100	         -0.00000000	          0.00000000	          0.00000000	          0.00000000	
          0.24800000	       -230.76814300	       1443.19067400	         23.77728500	          1.06341400	          0.00000000	         -0.33316800	          0.00000000	          0.00000000	          0.00000000	          0.00000000	          0.00000000	          0.00000000	         -0.00000000	          2.24967500	         -0.00000000	          0.00000000	          0.00000000	          0.00000000	
          0.24900000	       -231.60482800	       1462.02270500	         22.68262300	          1.06036900	          0.00000000	         -0.33324600	          0.00000000	          0.00000000	          0.00000000	          0.00000000	          0.00000000	          0.00000000	         -0.00000000	          2.83837000	         -0.00000000	          0.00000000	          0.00000000	          0.00000000	
          0.25000000	       -231.75207500	       1481.13256800	         21.71081200	          1.05727600	          0.00000000	         -0.33331600	          0.00000000	          0.00000000	          0.00000000	          0.00000000	          0.00000000	          0.00000000	         -0.00000000	          3.39721000	         -0.00000000	          0.00000000	          0.00000000	          0.00000000	
          0.25100000	       -231.25611900	       1500.44885300	         20.86631000	          1.05414400	          0.00000000	         -0.33337700	          0.00000000	          0.00000000	          0.00000000	          0.00000000	          0.00000000	          0.00000000	         -0.00000000	          3.92563800	         -0.00000000	          0.00000000	          0.00000000	          0.00000000	
          0.25200000	       -230.16473400	       1519.89697300	         20.15218700	          1.05098100	          0.00000000	         -0.33342800	          0.00000000	          0.00000000	          0.00000000	          0.00000000	          0.00000000	          0.00000000	         -0.00000000	          4.42319300	         -0.00000000	          0.00000000	          0.00000000	          0.00000000	
          0.25300000	       -228.52621500	       1539.40063500	         19.57006300	          1.04779500	          0.00000000	         -0.33346800	          0.00000000	          0.00000000	          0.00000000	          0.00000000	          0.00000000	          0.00000000	         -0.00000000	          4.88951000	         -0.00000000	          0.00000000	          0.00000000	          0.00000000	
          0.25400000	       -226.38835100	       1558.88317900	         19.12009600	          1.04459500	          0.00000000	         -0.33349900	          0.00000000	          0.00000000	          0.00000000	          0.00000000	          0.00000000	          0.00000000	         -0.00000000	          5.32431500	         -0.00000000	          0.00000000	          0.00000000	          0.00000000	
          0.25500000	       -223.79772900	       1578.26794400	         18.80098500	          1.04138900	          0.00000000	         -0.33352000	          0.00000000	          0.00000000	          0.00000000	          0.00000000	          0.00000000	          0.00000000	         -0.00000000	          5.72743200	         -0.00000000	          0.00000000	          0.00000000	          0.00000000	
          0.25600000	       -220.79924000	       1597.48010300	         18.61002200	          1.03818400	          0.00000000	         -0.33353200	          0.00000000	          0.00000000	          0.00000000	          0.00000000	          0.00000000	          0.00000000	         -0.00000000	          6.09877600	         -0.00000000	          0.00000000	          0.00000000	          0.00000000	
          0.25700000	       -217.43579100	       1616.44714400	         18.54314200	          1.03498500	          0.00000000	         -0.33353500	          0.00000000	          0.00000000	          0.00000000	          0.00000000	          0.00000000	          0.00000000	         -0.00000000	          6.43835400	         -0.00000000	          0.00000000	          0.00000000	          0.00000000	
          0.25800000	       -213.74810800	       1635.09948700	         18.59502800	          1.03179900	          0.00000000	         -0.33353000	          0.00000000	          0.00000000	          0.00000000	          0.00000000	          0.00000000	          0.00000000	         -0.00000000	          6.74626100	         -0.00000000	          0.00000000	          0.00000000	          0.00000000	
          0.25900000	       -209.77479600	       1653.37133800	         18.75923200	          1.02863000	          0.00000000	         -0.33351800	          0.00000000	          0.00000000	          0.00000000	          0.00000000	          0.00000000	          0.00000000	         -0.00000000	          7.02268000	         -0.00000000	          0.00000000	          0.00000000	          0.00000000	
